<?xml version="1.0" encoding="UTF-8" standalone="no"?>
<!DOCTYPE svg PUBLIC "-//W3C//DTD SVG 1.1//EN"
 "http://www.w3.org/Graphics/SVG/1.1/DTD/svg11.dtd">
<!-- Generated by graphviz version 12.1.1 (20240910.0053)
 -->
<!-- Title: INFRA Pages: 1 -->
<svg width="602pt" height="296pt"
 viewBox="0.00 0.00 602.37 296.00" xmlns="http://www.w3.org/2000/svg" xmlns:xlink="http://www.w3.org/1999/xlink">
<g id="graph0" class="graph" transform="scale(1 1) rotate(0) translate(4 292)">
<title>INFRA</title>
<polygon fill="white" stroke="none" points="-4,4 -4,-292 598.37,-292 598.37,4 -4,4"/>
<!-- BmiCalculatorFunction -->
<g id="node1" class="node">
<title>BmiCalculatorFunction</title>
<path fill="#b7e0ff" stroke="black" stroke-width="2" d="M370.23,-180C370.23,-180 217.17,-180 217.17,-180 211.17,-180 205.17,-174 205.17,-168 205.17,-168 205.17,-120 205.17,-120 205.17,-114 211.17,-108 217.17,-108 217.17,-108 370.23,-108 370.23,-108 376.23,-108 382.23,-114 382.23,-120 382.23,-120 382.23,-168 382.23,-168 382.23,-174 376.23,-180 370.23,-180"/>
<text text-anchor="middle" x="293.7" y="-148.2" font-family="Arial" font-size="14.00">BmiCalculatorFunction</text>
<text text-anchor="middle" x="293.7" y="-131.4" font-family="Arial" font-size="14.00">(AWS::Lambda::Function)</text>
</g>
<!-- BmiCalculatorFunctionServiceRole53EFEE9C -->
<g id="node2" class="node">
<title>BmiCalculatorFunctionServiceRole53EFEE9C</title>
<path fill="#e6e6e6" stroke="black" stroke-width="2" d="M432.87,-72C432.87,-72 154.52,-72 154.52,-72 148.52,-72 142.52,-66 142.52,-60 142.52,-60 142.52,-12 142.52,-12 142.52,-6 148.52,0 154.52,0 154.52,0 432.87,0 432.87,0 438.87,0 444.87,-6 444.87,-12 444.87,-12 444.87,-60 444.87,-60 444.87,-66 438.87,-72 432.87,-72"/>
<text text-anchor="middle" x="293.7" y="-40.2" font-family="Arial" font-size="14.00">BmiCalculatorFunctionServiceRole53EFEE9C</text>
<text text-anchor="middle" x="293.7" y="-23.4" font-family="Arial" font-size="14.00">(AWS::IAM::Role)</text>
</g>
<!-- BmiCalculatorFunction&#45;&gt;BmiCalculatorFunctionServiceRole53EFEE9C -->
<g id="edge1" class="edge">
<title>BmiCalculatorFunction&#45;&gt;BmiCalculatorFunctionServiceRole53EFEE9C</title>
<path fill="none" stroke="black" d="M293.7,-107.7C293.7,-99.93 293.7,-91.57 293.7,-83.43"/>
<polygon fill="black" stroke="black" points="297.2,-83.66 293.7,-73.66 290.2,-83.66 297.2,-83.66"/>
</g>
<!-- BmiCalculatorFunctionLogGroup84425627 -->
<g id="node3" class="node">
<title>BmiCalculatorFunctionLogGroup84425627</title>
<path fill="#e6e6e6" stroke="black" stroke-width="2" d="M269.39,-288C269.39,-288 12,-288 12,-288 6,-288 0,-282 0,-276 0,-276 0,-228 0,-228 0,-222 6,-216 12,-216 12,-216 269.39,-216 269.39,-216 275.39,-216 281.39,-222 281.39,-228 281.39,-228 281.39,-276 281.39,-276 281.39,-282 275.39,-288 269.39,-288"/>
<text text-anchor="middle" x="140.7" y="-256.2" font-family="Arial" font-size="14.00">BmiCalculatorFunctionLogGroup84425627</text>
<text text-anchor="middle" x="140.7" y="-239.4" font-family="Arial" font-size="14.00">(AWS::Logs::LogGroup)</text>
</g>
<!-- BmiCalculatorFunctionLogGroup84425627&#45;&gt;BmiCalculatorFunction -->
<g id="edge2" class="edge">
<title>BmiCalculatorFunctionLogGroup84425627&#45;&gt;BmiCalculatorFunction</title>
<path fill="none" stroke="black" d="M191.64,-215.7C204.99,-206.46 219.51,-196.39 233.3,-186.84"/>
<polygon fill="black" stroke="black" points="235.24,-189.76 241.47,-181.18 231.25,-184 235.24,-189.76"/>
</g>
<!-- BmiCalculatorFunctionFunctionUrl68DA8F90 -->
<g id="node4" class="node">
<title>BmiCalculatorFunctionFunctionUrl68DA8F90</title>
<path fill="#e78f81" stroke="black" stroke-width="2" d="M582.37,-288C582.37,-288 311.02,-288 311.02,-288 305.02,-288 299.02,-282 299.02,-276 299.02,-276 299.02,-228 299.02,-228 299.02,-222 305.02,-216 311.02,-216 311.02,-216 582.37,-216 582.37,-216 588.37,-216 594.37,-222 594.37,-228 594.37,-228 594.37,-276 594.37,-276 594.37,-282 588.37,-288 582.37,-288"/>
<text text-anchor="middle" x="446.7" y="-256.2" font-family="Arial" font-size="14.00">BmiCalculatorFunctionFunctionUrl68DA8F90</text>
<text text-anchor="middle" x="446.7" y="-239.4" font-family="Arial" font-size="14.00">(AWS::Lambda::Url)</text>
</g>
<!-- BmiCalculatorFunctionFunctionUrl68DA8F90&#45;&gt;BmiCalculatorFunction -->
<g id="edge3" class="edge">
<title>BmiCalculatorFunctionFunctionUrl68DA8F90&#45;&gt;BmiCalculatorFunction</title>
<path fill="none" stroke="black" d="M395.75,-215.7C382.4,-206.46 367.88,-196.39 354.09,-186.84"/>
<polygon fill="black" stroke="black" points="356.14,-184 345.92,-181.18 352.15,-189.76 356.14,-184"/>
</g>
</g>
</svg>
